<svg width="61" height="58" viewBox="0 0 61 58" fill="none" xmlns="http://www.w3.org/2000/svg">
<path d="M12.705 14.8629C11.9243 14.8789 11.1793 15.2785 10.7976 15.9397L9.06846 18.9346C8.66425 19.6348 8.69068 20.4798 9.08963 21.125L25.7146 49.3411C26.075 49.9641 26.9553 49.9537 27.3146 49.3314L31.8058 41.5524C32.1426 40.969 32.1484 40.2463 31.7656 39.6623L21.6865 24.249L40.2315 24.9989C40.8902 25.0161 41.5517 24.672 41.8885 24.0886L46.3797 16.3096C46.739 15.6873 46.2693 14.8975 45.5496 14.8969L12.644 14.8795L12.705 14.8629Z" fill="#003E29"/>
<path d="M52.0344 36.8964C52.302 36.433 52.2189 35.9216 51.8914 35.7325L16.5752 15.3427C16.2258 15.141 15.7465 15.3663 15.4956 15.8007L11.4321 22.839C11.1645 23.3024 11.2477 23.8139 11.5752 24.0029L46.8695 44.3802C47.2189 44.5818 47.6982 44.3566 47.9491 43.9221L52.0126 36.8838L52.0344 36.8964Z" fill="#003E29"/>
</svg>
